<svg width="96" height="20" viewBox="0 0 96 20" fill="none" xmlns="http://www.w3.org/2000/svg">
<path d="M24.1075 9.81186L23.9017 9.68136C23.194 8.97363 22.2102 8.66745 20.8901 8.74776C19.7958 8.81301 18.9225 9.24969 18.2599 9.65124C18.2599 9.64121 18.2599 9.63117 18.2599 9.62113C18.2599 9.27981 18.3001 8.90336 18.3352 8.54196C18.3753 8.17555 18.4105 7.79909 18.4105 7.44774C18.4105 7.09638 18.3703 6.74503 18.2448 6.44888C18.2147 6.37359 18.1445 6.32842 18.0591 6.32842C17.7028 6.33846 17.0151 6.57939 16.8444 6.72495L16.7541 6.92572C16.7491 7.31723 16.6637 8.41146 16.5734 8.54698L16.5282 8.67749C16.3776 10.2435 16.3776 11.6188 16.5132 12.7984C16.5282 12.9189 16.7591 13.0945 16.9298 13.1598C17.1205 13.2301 17.7228 13.0694 18.0742 12.9389L18.2047 12.9189C18.3151 12.9088 18.3804 12.8135 18.3753 12.688L18.3854 12.3467C18.6364 11.3277 19.6503 10.113 20.8499 9.92731C21.5275 9.8219 22.0646 9.99256 22.4862 10.4543C22.5414 10.5347 22.6669 11.2725 22.2202 12.1107C21.8889 12.7331 21.2213 13.2602 20.3429 13.5915C19.5147 13.9077 18.6012 14.0332 17.4719 13.993C17.4267 13.9629 16.4178 13.2803 16.4178 13.2803C15.5243 12.6528 14.4151 11.8698 13.4062 11.4883C13.2305 11.4181 12.9143 11.1571 12.7235 11.0015L12.6181 10.9161C12.0359 10.4493 10.9316 9.7165 10.0432 9.12421C10.0432 9.12421 9.64163 8.85316 9.56634 8.80297C9.56634 8.76783 9.56634 8.70258 9.56634 8.70258C9.59144 8.67247 10.1486 8.34119 10.1486 8.34119C10.9266 7.88442 11.288 7.65855 11.3683 7.54311C11.3532 7.56318 11.4737 7.48287 11.4737 7.48287C11.4787 7.48287 13.4062 6.38865 13.4062 6.38865C15.2633 5.36972 17.3665 4.21024 18.4707 3.06582L18.5259 2.89014L18.551 2.73454C18.6263 2.48859 18.6263 2.30288 18.5661 2.08704C18.551 2.02681 18.4908 1.95152 18.4155 1.94148C17.5522 1.85615 16.4379 2.37315 15.424 3.32181C15.1931 3.53764 15.0023 3.64305 14.8016 3.75348L14.646 3.83881C13.5266 4.47125 11.0119 6.03729 9.69684 6.87553C9.78217 5.46006 10.0482 3.44227 10.3694 1.7658L10.3343 1.56503L10.1988 1.30904L10.0984 1.12834L10.0683 1.1183C9.80727 0.982779 9.59144 1.03799 9.43082 1.07815L9.16981 1.17352L8.81845 1.299C8.74818 1.31406 8.69799 1.35421 8.67289 1.42448C8.04547 2.94536 7.51843 5.44501 7.39295 7.44774C6.13811 6.64966 4.97361 6.07243 4.4014 5.79636L4.38634 5.78632L4.32109 5.77127C4.1153 5.74617 3.86433 5.59559 3.62842 5.45003C3.60332 5.43497 3.15157 5.13882 3.15157 5.13882L2.41875 4.67202L2.22801 4.62685C1.91681 4.68206 1.31448 5.08361 1.13378 5.3647C1.10869 5.39983 1.09865 5.43999 1.09865 5.48014C1.09865 5.54037 1.11873 5.59559 1.13378 5.65582L1.1639 5.8064L1.19904 5.89675C1.55039 6.25313 2.4338 6.85545 3.29714 7.31723L4.30101 7.84929L5.83694 8.68752L6.09795 8.89834L6.27865 9.00375C6.27865 9.00375 6.29873 9.0188 6.31378 9.02382C5.90219 9.29989 3.51799 10.891 3.51799 10.891L2.04731 11.8648C1.90677 11.9602 1.32954 12.2212 1.19904 12.2714C0.882816 12.4019 0.636866 12.6026 0.541498 12.8185L0.501343 12.9038L0.541498 12.959L0.651924 13.0443L0.802505 13.1447L0.963126 13.2552L1.11873 13.2803C1.37973 13.2903 1.76121 13.1447 2.47396 12.8285C3.1315 12.5374 4.9184 11.4582 5.68134 11.0015L6.0076 10.8057C6.14312 10.8157 6.28869 10.7053 6.42421 10.6049C6.57981 10.4845 6.91109 10.2787 7.11186 10.1883C7.11688 10.1883 7.23233 10.1231 7.34276 10.0628C7.34276 10.098 7.34276 10.1482 7.34276 10.1482C7.37789 12.4822 7.5084 14.1837 7.76438 15.4888V15.5139L7.7945 15.5641C7.91998 15.7498 8.06053 16.3019 8.19103 16.7888L8.48216 17.7626L8.56246 17.8529C8.7281 17.9684 9.23506 18.1591 9.57136 18.1189L9.65669 18.1089L9.7119 17.9884C9.74202 17.8429 9.75206 17.6973 9.75206 17.5417C9.75206 17.366 9.737 17.1703 9.72194 16.9293L9.69684 16.578C9.59144 14.9467 9.48101 12.5926 9.48101 11.0266V10.9011C9.75708 11.0717 10.9718 11.8397 10.9718 11.8397C13.0347 13.1748 16.1467 15.1977 18.029 15.7347C18.1244 15.7648 18.2298 15.7397 18.3001 15.6745L18.5912 15.4888L18.6464 15.4687C18.7518 15.4185 18.8271 15.2378 18.8371 15.037C20.4233 14.9567 22.6368 14.3444 23.8214 12.8586C24.2781 12.2814 24.4839 11.5737 24.4839 10.9713C24.4839 10.4744 24.3484 10.0478 24.0974 9.81186" fill="#FCAF17"/>
<path d="M42.5289 3.4375H48.241C50.9565 3.4375 52.3769 4.34099 52.3769 6.3136C52.3769 7.71401 51.3982 8.68275 50.0931 8.94376V8.99395C51.9603 9.2148 52.8437 10.4395 52.8437 11.8249C52.8437 13.5616 51.5738 15.0574 48.4166 15.0574H42.5239V3.4375H42.5289ZM44.376 8.33139H48.1456C49.546 8.33139 50.58 7.79934 50.58 6.56457C50.58 5.48541 50.068 4.76262 47.9348 4.76262H44.3811V8.33139H44.376ZM44.376 13.7322H48.0302C50.2989 13.7322 50.9012 12.8488 50.9012 11.7195C50.9012 10.3843 49.9777 9.64647 47.9348 9.64647H44.3811V13.7322H44.376Z" fill="white"/>
<path d="M29.9608 3.43848H31.818V8.63353L38.0621 3.43848H40.6872L34.0867 8.68373L41.2343 15.0533H38.6092L31.818 8.82929V15.0533H29.9608V3.43848Z" fill="white"/>
<path d="M63.5146 8.25157V9.49638H55.9805V8.25157H57.0045V4.85847H55.9805V3.61367H63.354V4.85847H62.2246V8.25157H63.5146ZM66.4008 15.0127H57.2253V10.7562H58.6759V13.7729H66.4008V15.0177V15.0127ZM58.44 8.25157H60.8092V4.85847H58.44V8.25157ZM64.8046 3.43799H66.2703V11.9107H64.8046V3.43799Z" fill="white"/>
<path d="M72.7152 8.0906H69.5831V9.96283H73.7542V11.2076H68.1475V3.72876H73.3426V4.97357H69.5831V6.84579H72.7152V8.0906ZM73.3024 6.60988H74.8384V3.43262H76.2438V14.6861H74.8384V7.86473H73.3024V6.60486V6.60988ZM78.628 3.43764V15.0575H77.2226V3.43764H78.628Z" fill="white"/>
<path d="M80.0486 14.0432V12.7984H88.712V8.97863H80.9872V7.73383H88.712V5.08359H80.9872V3.82373H90.1476V12.7934H91.2016V14.0382H80.0536L80.0486 14.0432Z" fill="white"/>
</svg>
