<svg width="24" height="24" viewBox="0 0 24 24" fill="none" xmlns="http://www.w3.org/2000/svg">
<g clip-path="url(#clip0_13141_11479)">
<path d="M13.9446 3.29695C14.2069 3.31016 14.4688 3.30415 14.7313 3.29346C15.2593 3.32975 15.8998 3.27199 16.4306 3.31034C17.1961 3.31785 17.9005 3.34797 18.4852 3.92796C18.7537 4.19434 18.9431 4.64321 18.981 5.01582C19.0015 5.21682 18.9823 5.50237 18.9983 5.71888C19.0009 10.1049 18.9997 19.8161 18.9997 19.8161C18.9628 20.5059 19.0057 21.1168 18.4332 21.638C17.9341 22.0922 17.5265 22.1243 16.8661 22.1193C16.7561 22.1414 16.6799 22.1578 16.5654 22.1423C16.2529 22.1252 15.8632 22.1417 15.5382 22.1387C15.5382 22.1387 10.2218 22.0288 7.7945 22.1347C7.80526 22.2754 7.78861 22.5045 7.80171 22.6255C7.91688 23.6892 6.48425 23.7212 6.49751 22.689C6.49944 22.5391 6.49603 22.3049 6.4816 22.1543L6.47917 22.1299L6.45206 22.123C5.68319 22.0444 5.24536 22.2913 4.59114 21.6601C3.98711 21.0773 4.01242 20.5949 4 19.8261L4.00049 5.68544C4.0042 5.05917 4.00176 4.52383 4.42076 3.99737C4.77591 3.55112 5.30945 3.36436 5.86228 3.32931C6.0652 3.31646 6.25865 3.32432 6.46578 3.30407C7.01032 3.30907 7.54001 3.29947 8.08569 3.31296C8.33683 3.33035 8.62563 3.31573 8.87694 3.30138C10.524 3.33677 13.9446 3.29695 13.9446 3.29695Z" fill="#EFB13B"/>
<path d="M16.4304 3.3103C17.1959 3.31782 17.9003 3.34794 18.485 3.92793C18.7534 4.19431 18.9429 4.64318 18.9808 5.01579C19.0013 5.21679 18.982 5.50234 18.9981 5.71885C18.9353 5.67661 18.4272 5.70083 18.2446 5.66084C17.9248 5.59084 17.7299 5.53341 17.4412 5.3608C16.9826 5.08648 16.6724 4.46598 16.5969 3.95278C16.5694 3.76607 16.5925 3.51342 16.5516 3.33283L16.4304 3.3103Z" fill="#7B451E"/>
<path d="M4.00049 5.68532C4.00419 5.05906 4.00176 4.52371 4.42075 3.99725C4.7759 3.551 5.30945 3.36424 5.86228 3.32919C6.0652 3.31634 6.25864 3.3242 6.46578 3.30396L6.42161 3.33269C6.40641 3.49022 6.40435 3.6543 6.38239 3.80948C6.30378 4.36483 6.1038 4.89192 5.65747 5.25407C5.41496 5.45084 4.92801 5.66328 4.61334 5.68088C4.42421 5.69148 4.19864 5.67077 4.00049 5.68532Z" fill="#7B451E"/>
<path d="M16.5653 22.1424C16.5614 21.4554 16.6864 20.9208 17.1657 20.4058C17.7011 19.8304 18.2798 19.8401 18.9996 19.8162C18.9627 20.506 19.0056 21.1169 18.4331 21.6381C17.9339 22.0923 17.5263 22.1244 16.866 22.1194C16.7559 22.1415 16.6797 22.1579 16.5653 22.1424Z" fill="#7B451E"/>
<path d="M4 19.8261C4.70028 19.8217 5.21961 19.8453 5.75461 20.3582C6.27489 20.857 6.34066 21.3799 6.42172 22.057C6.42506 22.0847 6.4322 22.1045 6.45206 22.123C5.68319 22.0443 5.24536 22.2913 4.59114 21.66C3.98711 21.0773 4.01242 20.5949 4 19.8261Z" fill="#7B451E"/>
<path d="M6.47925 22.1299C6.87586 22.1325 7.4086 22.1523 7.79458 22.1346C7.80534 22.2754 7.78869 22.5045 7.80179 22.6255C7.91696 23.6892 6.48433 23.7211 6.49759 22.689C6.49951 22.5391 6.49611 22.3048 6.48168 22.1542L6.47925 22.1299Z" fill="#383131"/>
<path d="M7.03518 10.121C7.60323 10.1008 8.27453 10.1169 8.84859 10.117L12.3218 10.1182L14.6238 10.117C14.9519 10.1169 15.2812 10.1158 15.6081 10.1172C15.82 10.1221 16.1193 10.1096 16.2558 10.3115C16.4782 10.6404 16.3066 10.93 16.045 11.1344L15.8761 11.148L9.74731 11.1427C8.83995 11.1416 7.84031 11.1623 6.94015 11.1348C6.88313 11.0983 6.82738 11.0623 6.77212 11.0233C6.34923 10.7247 6.56174 10.1847 7.03518 10.121Z" fill="#C9880C"/>
<path d="M11.3958 12.3728C11.5207 12.3684 11.6231 12.3703 11.7367 12.4364C11.8312 12.4916 11.9 12.5823 11.9279 12.6881C11.9702 12.8567 11.9609 13.4672 11.9607 13.6675L11.9598 15.3447L11.9609 17.398C11.9609 17.7686 11.9637 18.139 11.9531 18.5094C11.9452 18.7866 11.8884 19.0221 11.5716 19.075C11.5344 19.0771 11.4972 19.0785 11.46 19.079C10.9243 19.0842 11.0348 18.1787 11.0336 17.819C11.0288 17.2728 11.0288 16.7266 11.0335 16.1803C11.0397 15.0738 10.9997 13.8122 11.0434 12.7158C11.1423 12.5611 11.2476 12.4733 11.3958 12.3728Z" fill="#C9880C"/>
<path d="M6.60536 12.3767C6.80502 12.3585 7.03757 12.546 7.05999 12.737C7.0887 12.9819 7.0763 13.2621 7.07679 13.511L7.07838 14.9678L7.07642 17.4016C7.0759 17.8201 7.09008 18.3369 7.06582 18.7463C6.97016 18.8944 6.87488 19.0394 6.68616 19.0516C6.44222 19.0604 6.21163 18.9713 6.17051 18.6853C6.13801 18.459 6.1552 18.1568 6.15499 17.924L6.15483 16.4802L6.15214 14.1521C6.15169 13.7157 6.14716 13.2805 6.16159 12.8443C6.17125 12.552 6.32325 12.4226 6.60536 12.3767Z" fill="#C9880C"/>
<path d="M16.1863 12.3763C16.3159 12.3691 16.3572 12.3679 16.4759 12.4053C16.5618 12.4323 16.69 12.5631 16.7008 12.6386C16.7555 13.0222 16.7366 13.6212 16.7366 13.9963L16.729 16.5859C16.729 17.2527 16.7375 17.92 16.7327 18.5867C16.7308 18.8433 16.6279 18.9708 16.3893 19.0558C16.0383 19.072 15.8237 18.9318 15.8134 18.5496C15.8036 18.1794 15.817 17.8059 15.817 17.4348L15.8214 14.9627L15.818 13.5136C15.8173 13.2759 15.8066 12.8681 15.8431 12.646C15.9674 12.5047 16.0207 12.4622 16.1863 12.3763Z" fill="#C9880C"/>
<path d="M13.8708 12.3751C13.8823 12.3751 13.8939 12.3749 13.9054 12.3748C14.0406 12.3758 14.1697 12.4314 14.2634 12.5289C14.3131 12.5809 14.3872 12.6979 14.392 12.7698C14.4082 13.0141 14.3964 13.2727 14.3953 13.5187L14.3946 14.9131V17.361C14.3946 17.8159 14.4036 18.309 14.389 18.7613C14.2456 18.947 14.2004 19.0059 13.968 19.0519L13.7671 19.0701C13.5678 18.9562 13.4955 18.7941 13.4932 18.5665C13.4847 17.7148 13.4916 16.863 13.49 16.0111L13.4867 14.2685C13.4845 13.824 13.4503 13.1497 13.5009 12.7021C13.5152 12.5762 13.7438 12.433 13.8708 12.3751Z" fill="#C9880C"/>
<path d="M9.15477 12.3767C9.4514 12.3569 9.53972 12.4204 9.69984 12.6612C9.71527 12.9143 9.69968 13.2257 9.70567 13.4862C9.7295 14.5228 9.70596 15.5627 9.70493 16.6015C9.70276 17.0019 9.70463 17.4021 9.71056 17.8025C9.71562 18.1069 9.73698 18.5469 9.69571 18.8365C9.59574 18.9635 9.55024 19.0089 9.39875 19.0491C9.1659 19.0634 9.00728 19.0258 8.8728 18.8092C8.8325 18.7443 8.83227 18.6907 8.83151 18.6164C8.81273 16.7728 8.83557 14.9288 8.82072 13.0853C8.81978 12.9686 8.81558 12.8448 8.83894 12.7344C8.87502 12.5636 9.02385 12.4511 9.15477 12.3767Z" fill="#C9880C"/>
<path d="M13.8364 1.09036C14.0065 1.06849 14.6749 1.05644 14.8132 1.09591C14.7453 1.29273 14.7961 1.57641 14.7901 1.76072C14.7811 2.032 14.7993 3.10438 14.7313 3.29341C14.4689 3.3041 14.207 3.31012 13.9447 3.29691C13.895 3.11766 13.9278 2.92338 13.9174 2.75969C13.8952 2.40699 13.9452 1.3664 13.8364 1.09036Z" fill="#D4D3D3" fill-opacity="0.984314"/>
<path d="M8.01904 1.0986C8.13086 1.07809 8.83271 1.06398 8.92035 1.10822C8.85982 1.65907 8.88472 2.18219 8.88021 2.73502C8.87887 2.89963 8.88822 3.14194 8.87663 3.30136C8.62531 3.31572 8.33652 3.33034 8.08538 3.31295C8.01183 3.1165 8.03236 1.41461 8.01904 1.0986Z" fill="#D7D6D6"/>
<path d="M8.01935 2.57665C7.93712 2.56875 7.958 2.58337 7.91484 2.53451C7.89176 2.41627 7.88121 2.11594 7.89313 1.98017C7.93096 1.54911 7.74069 0.603056 8.34389 0.502434C8.59016 0.461374 8.94984 0.476367 9.19885 0.47582L10.5826 0.472151C11.4745 0.466172 12.3666 0.467089 13.2585 0.474885C13.6482 0.477336 14.0386 0.466983 14.4261 0.481411C14.6963 0.491464 14.8838 0.794281 14.896 1.02431C14.9071 1.23545 14.9486 2.44631 14.8738 2.55259C14.8576 2.55861 14.8288 2.57039 14.8131 2.57399C14.6748 2.53451 14.0064 2.54656 13.8363 2.56843C13.7378 2.47169 13.7699 1.94916 13.7788 1.79025C12.6287 1.75919 11.4377 1.80154 10.2837 1.78254C9.86932 1.77572 9.44129 1.79095 9.02814 1.77429C9.03212 1.96747 9.05766 2.38772 9.00053 2.54707C8.96461 2.57915 8.96794 2.57822 8.92065 2.58626C8.83301 2.54203 8.13117 2.55614 8.01935 2.57665Z" fill="#7B451E"/>
<path d="M16.5654 22.1423C16.6798 22.1578 16.756 22.1414 16.8661 22.1194C16.8927 22.3601 16.8836 22.6005 16.877 22.8462C16.8633 23.3637 16.2543 23.5687 15.8475 23.3369C15.4265 23.0969 15.5533 22.5547 15.5382 22.1388C15.8632 22.1418 16.2528 22.1252 16.5654 22.1423Z" fill="#383131"/>
</g>
<defs>
<clipPath id="clip0_13141_11479">
<rect width="24" height="24" fill="white"/>
</clipPath>
</defs>
</svg>
