<svg width="24" height="24" viewBox="0 0 24 24" fill="none" xmlns="http://www.w3.org/2000/svg">
<path d="M0.923072 5.48942C0.980612 4.56309 1.37799 4.29863 2.19026 3.95615C3.84802 3.2572 5.68793 3.03107 7.48028 2.917C9.46092 2.79095 11.5621 2.79707 13.5317 3.09187C15.0476 3.31877 16.6649 3.54715 17.8789 4.56101C18.1446 4.78502 18.1425 5.22958 18.2153 5.52442C18.2147 6.25183 18.2496 6.98836 18.2117 7.71503C18.5631 7.69296 19.2135 7.6437 19.5495 7.70404C20.9592 7.77591 22.1128 8.51319 22.5762 9.89628C22.6784 10.1902 22.743 10.4961 22.7966 10.802C22.9782 11.8422 23.0348 12.9352 22.98 13.9904C22.9096 15.3453 22.7617 16.9004 21.6734 17.8537C21.037 18.4109 20.1842 18.6363 19.3537 18.6519C19.3442 18.651 19.3347 18.65 19.3251 18.6491C19.0828 18.6847 18.4818 18.6279 18.2098 18.6111C18.188 19.1751 18.25 19.7472 18.2167 20.31C18.1954 20.6671 17.9887 20.9772 17.7251 21.2065C16.4224 22.3395 13.0106 22.6766 11.3104 22.7544C9.8482 22.8144 8.38383 22.7929 6.92406 22.6901C5.45632 22.5815 2.18794 22.1873 1.21499 21.0461C1.05385 20.857 0.946994 20.6641 0.92041 20.4132L0.923072 5.48942ZM18.2094 9.37973L18.2146 16.9053C18.5428 16.9538 18.9157 16.9542 19.2479 16.9604C19.7911 16.9428 20.169 16.8764 20.6163 16.5202C21.1086 16.1282 21.3039 14.8743 21.3175 14.2194C21.3419 13.0574 21.4534 10.8054 20.7013 9.85373C20.3875 9.45668 19.7344 9.35788 19.2652 9.33937C18.9222 9.34741 18.5479 9.34328 18.2094 9.37973Z" fill="#CD2929"/>
<path d="M0.922852 5.48942C0.980392 4.56309 1.37777 4.29863 2.19004 3.95615C3.8478 3.2572 5.68771 3.03107 7.48006 2.917C9.4607 2.79095 11.5619 2.79707 13.5315 3.09187C15.0473 3.31877 16.6647 3.54715 17.8787 4.56101C18.1444 4.78502 18.1423 5.22958 18.2151 5.52442C18.1529 5.7149 18.0718 5.86793 17.9385 6.01869C16.8237 7.28098 13.2468 7.63024 11.6238 7.73524C9.19681 7.89229 3.16198 7.80562 1.32601 6.17292C1.14069 6.00809 0.937094 5.74561 0.922852 5.48942Z" fill="#F9F1DB"/>
<path d="M1.84846 5.56772C1.84202 5.42808 1.71598 5.26184 1.8369 5.09485C2.2598 4.51086 3.10272 4.24613 3.7591 4.06227C5.16214 3.66929 6.63654 3.53654 8.07828 3.46364C10.4586 3.34327 12.8876 3.43093 15.2039 4.02357C15.7947 4.17524 17.0953 4.51713 17.3342 5.16658C17.3947 5.33068 17.3057 5.42262 17.2772 5.54788C16.8231 6.02314 16.1464 6.24469 15.5178 6.40233C14.937 6.57462 13.9734 6.72088 13.3792 6.79552C10.8312 7.10351 8.25531 7.10258 5.70754 6.79272C5.28092 6.74372 4.85628 6.67891 4.43446 6.59847C4.34425 6.5816 4.08782 6.53718 4.01154 6.50645C3.37355 6.39054 2.2813 6.06243 1.84846 5.56772Z" fill="#9F5E26"/>
<path d="M1.84846 5.56772C1.84202 5.42808 1.71598 5.26184 1.8369 5.09485C2.2598 4.51086 3.10272 4.24613 3.7591 4.06227C5.16214 3.66929 6.63654 3.53654 8.07828 3.46364C10.4586 3.34327 12.8876 3.43093 15.2039 4.02357C15.7947 4.17524 17.0953 4.51713 17.3342 5.16658C17.3947 5.33068 17.3057 5.42262 17.2772 5.54788C16.8231 6.02314 16.1464 6.24469 15.5178 6.40233L15.51 6.38117C15.525 6.34135 15.5873 6.32296 15.6274 6.29796C15.8023 6.18926 15.9554 6.08758 16.0664 5.90922C16.1355 5.69542 16.0954 5.52785 15.959 5.35749C15.7681 5.13092 15.5179 5.02516 15.2525 4.90794C14.2498 4.46521 13.0447 4.25802 11.9544 4.16491C11.0321 4.08614 10.0964 4.0291 9.17004 4.0426C8.72516 4.04908 8.28796 4.08747 7.84504 4.12607C6.56562 4.23757 4.9596 4.40248 3.82286 5.02222C3.69074 5.09425 3.55414 5.1665 3.43854 5.26379C3.31185 5.37042 3.18444 5.52045 3.16876 5.69143C3.15736 5.81565 3.21125 5.92335 3.2929 6.01368C3.49314 6.23522 3.78007 6.34553 4.03771 6.48099C4.01393 6.50605 4.0211 6.50075 4.01154 6.50645C3.37355 6.39054 2.2813 6.06243 1.84846 5.56772Z" fill="#E7D5BD"/>
<path d="M1.84863 5.56756C2.24913 4.73136 4.56701 4.30417 5.41636 4.17404C7.99555 3.79098 10.6152 3.76472 13.2015 4.09605C14.1172 4.21888 16.8266 4.66402 17.2773 5.54771C16.8233 6.02297 16.1466 6.24453 15.5179 6.40216L15.5102 6.381C15.5252 6.34118 15.5874 6.32279 15.6275 6.2978C15.8024 6.18909 15.9556 6.08741 16.0666 5.90905C16.1357 5.69526 16.0956 5.52768 15.9592 5.35732C15.7682 5.13076 15.5181 5.02499 15.2526 4.90777C14.2499 4.46504 13.0449 4.25785 11.9546 4.16474C11.0322 4.08597 10.0965 4.02893 9.17021 4.04243C8.72533 4.04891 8.28813 4.0873 7.84521 4.1259C6.56579 4.2374 4.95977 4.40232 3.82303 5.02206C3.69091 5.09408 3.55431 5.16633 3.43871 5.26362C3.31202 5.37025 3.18461 5.52028 3.16893 5.69126C3.15753 5.81549 3.21142 5.92319 3.29307 6.01352C3.49331 6.23505 3.78024 6.34536 4.03788 6.48082C4.0141 6.50588 4.02127 6.50058 4.01171 6.50628C3.37372 6.39037 2.28147 6.06226 1.84863 5.56756Z" fill="#6B3C13"/>
<path d="M15.9589 5.35742C16.0953 5.52778 16.1354 5.69535 16.0663 5.90915L16.022 5.89677C15.9798 5.81232 15.9802 5.56479 15.9306 5.45719C15.9119 5.41685 15.939 5.38465 15.9589 5.35742Z" fill="#A96933"/>
<path d="M10.1841 4.37564C10.3598 4.36479 10.7213 4.39678 10.766 4.5926C10.8353 4.89588 10.1817 5.04055 10.0133 5.19858C9.91831 5.28765 9.87429 5.39198 9.82629 5.4906C9.95815 5.38655 10.0307 5.33204 10.1924 5.2631C10.4939 5.13458 10.9247 5.10146 11.1594 4.85904C11.2243 4.79196 11.2112 4.72678 11.2031 4.64162C11.3822 4.66003 11.768 4.71845 11.7786 4.94961C11.8112 5.65508 9.77775 5.35235 9.88675 6.00185C9.97327 5.99308 10.1237 5.87104 10.2503 5.83851C10.8524 5.68378 11.7535 5.70479 12.238 5.28716C12.3612 5.18093 12.3464 5.01782 12.3415 4.87574C12.5742 4.92716 12.9275 4.9842 13.0255 5.23709C13.1114 5.45901 12.897 5.61148 12.724 5.69949C12.1742 5.97922 11.5328 6.00525 10.9314 6.07674C10.6894 6.10535 10.4468 6.12607 10.2131 6.2013C10.0314 6.26055 9.97379 6.37789 9.89764 6.53354C10.3414 6.26642 10.7217 6.30623 11.231 6.24561C11.8878 6.16747 12.9007 6.10626 13.4116 5.6419C13.4859 5.56724 13.5342 5.4629 13.5262 5.35672C13.5077 5.10616 13.1878 4.90782 13.0066 4.7589C13.3931 4.79767 13.8631 4.90587 14.1839 5.13565C14.3032 5.22098 14.4411 5.34438 14.4622 5.49683C14.4753 5.59172 14.435 5.68295 14.3792 5.75746C13.9144 6.3777 11.8036 6.55293 11.0618 6.60354C10.7385 6.62558 10.3694 6.60603 10.0569 6.66385C9.87546 6.69743 9.83208 6.80024 9.73253 6.94363C9.69036 6.88039 9.64596 6.79882 9.60717 6.73197C9.35333 6.62593 8.96963 6.63967 8.68775 6.62544C8.45366 6.61511 8.21999 6.59689 7.98714 6.57084C7.11812 6.48525 5.63584 6.39042 4.9427 5.78423C4.66129 5.41706 5.06556 5.15585 5.3487 5.01604C5.5073 4.93772 6.30941 4.6318 6.39002 4.74934C6.30389 4.81808 6.17685 4.84917 6.07689 4.89724C5.91031 4.97736 5.7013 5.09569 5.64407 5.28347C5.6174 5.37093 5.63173 5.45991 5.6771 5.5384C6.06939 6.21708 8.28016 6.22349 9.00224 6.32144C9.22226 6.35129 9.4047 6.43623 9.61612 6.49024L9.6262 6.45839C9.55402 6.16289 8.89297 6.1199 8.65005 6.08777C7.85465 5.98254 6.9428 5.9936 6.25168 5.53554C6.1982 5.50011 6.12118 5.41217 6.12007 5.33952C6.14296 5.02803 6.60096 4.91415 6.86051 4.90409C6.86049 4.93764 6.85911 5.10498 6.86616 5.12206C7.11547 5.72571 8.66134 5.64919 9.19756 5.81113C9.409 5.875 9.55806 5.97124 9.68652 6.05901C9.65012 5.97509 9.56289 5.78389 9.48459 5.73684C8.99277 5.42453 8.26635 5.55226 7.74835 5.3096C7.11954 5.01504 7.42183 4.78403 7.90626 4.65159C7.9274 4.71323 7.95995 4.80945 8.00606 4.85605C8.27161 5.12448 8.74766 5.14044 9.09529 5.2522C9.29999 5.318 9.35772 5.33988 9.54076 5.44693C9.23686 4.9617 8.69938 5.07629 8.37649 4.73829C8.1301 4.48039 8.91205 4.3391 9.11155 4.41317C9.40283 4.5213 9.36159 4.4167 9.55143 4.68246C9.60684 4.69883 9.61044 4.67194 9.67391 4.59557C9.81726 4.42309 9.97155 4.39996 10.1841 4.37564Z" fill="#F9F1DB"/>
<path d="M19.5491 7.7041C20.9588 7.77597 22.1124 8.51324 22.5758 9.89634C22.6779 10.1902 22.7426 10.4961 22.7961 10.8021C22.9778 11.8422 23.0343 12.9352 22.9795 13.9905C22.9092 15.3454 22.7612 16.9005 21.673 17.8537C21.0366 18.411 20.1837 18.6364 19.3532 18.6519C19.3437 18.6511 19.3342 18.65 19.3247 18.6492C19.2483 18.6362 19.1439 18.6397 19.0644 18.6391C18.9002 18.2597 18.9792 17.4071 19.0262 16.9786C19.0893 16.9797 19.2004 16.9918 19.2474 16.9605C19.7907 16.9428 20.1685 16.8765 20.6159 16.5202C21.1081 16.1282 21.3034 14.8744 21.3171 14.2195C21.3415 13.0574 21.453 10.8054 20.7009 9.85379C20.387 9.45674 19.734 9.35794 19.2647 9.33943C19.2179 9.30948 19.0324 9.32099 18.9673 9.32166C18.9619 8.83941 18.9475 8.19393 19.073 7.72483C19.0798 7.69978 19.4787 7.71105 19.5491 7.7041Z" fill="#D63C3A"/>
<path d="M2.9787 8.21015C3.42029 8.18298 3.7946 8.4495 3.86108 8.9024C3.90018 9.16868 3.88151 9.51469 3.88401 9.78773C3.88994 10.292 3.89062 10.7964 3.88604 11.3007L3.88334 15.0696L3.88706 17.9141C3.88747 18.0932 3.89146 18.2766 3.88825 18.4553C3.87701 19.0795 4.04136 20.0303 3.14318 20.091C2.97943 20.0989 2.81484 20.074 2.66621 19.9995C2.52972 19.9423 2.30916 19.6744 2.28552 19.5221C2.20302 18.9908 2.23401 18.3762 2.2314 17.8383C2.22139 16.5789 2.22131 15.3196 2.23119 14.0602C2.23408 12.9825 2.23152 11.9049 2.22354 10.8273C2.22319 10.2923 2.21655 9.75624 2.23301 9.22149C2.25017 8.66376 2.40357 8.34296 2.9787 8.21015Z" fill="#D63C3A"/>
</svg>
