<svg width="24" height="24" viewBox="0 0 24 24" fill="none" xmlns="http://www.w3.org/2000/svg">
<g clip-path="url(#clip0_13141_11532)">
<path d="M18.5999 5.568C18.5166 5.56503 18.5136 5.61296 18.4901 5.67313C18.2766 6.22062 18.14 6.67289 17.82 7.18499C17.371 7.90274 16.4883 8.35038 16.7816 9.23773C17.3568 10.979 19.2743 9.15078 20.0112 8.64892C23.075 6.56246 24.1227 9.18086 23.9888 11.9487C23.8185 12.6053 23.7084 13.2698 23.4935 13.9165C22.4392 17.0863 19.6003 19.9775 16.6384 21.4427C9.42921 25.0096 0.940246 21.5611 0.0528997 13.205C-0.488633 8.10738 3.20093 2.99126 7.75734 1.05655C11.9514 -0.724422 19.351 -0.867905 18.5999 5.568ZM14.6501 3.85546C14.6501 2.74859 13.7529 1.851 12.6457 1.851C11.5385 1.851 10.6412 2.74826 10.6412 3.85546C10.6412 4.96266 11.5385 5.85993 12.6457 5.85993C13.7529 5.85993 14.6501 4.96266 14.6501 3.85546ZM8.86355 5.8262C8.86355 4.7114 7.95967 3.80752 6.84487 3.80752C5.73006 3.80752 4.82619 4.7114 4.82619 5.8262C4.82619 6.94101 5.73006 7.84488 6.84487 7.84488C7.95967 7.84488 8.86355 6.94101 8.86355 5.8262ZM5.42954 13.1597C7.52856 11.4518 4.86652 8.33187 2.82966 10.1135C0.786845 11.9004 3.44492 14.7741 5.42954 13.1597ZM21.4762 13.6678C21.7707 12.8228 21.2676 11.7037 20.4817 11.2736C18.6164 10.253 16.5538 12.7478 16.9799 14.5274C16.8864 15.7619 18.0422 16.5021 19.1692 16.3696C20.2771 16.2393 21.5786 14.7965 21.4762 13.6678ZM8.88008 18.6269C9.48806 17.6146 8.79743 16.1467 7.70775 15.8155C5.54228 15.1572 4.02645 17.846 5.77238 19.3212C5.78594 19.3506 5.75387 19.4048 5.8385 19.3873C5.85041 19.3959 5.859 19.4121 5.87156 19.4204C5.94893 19.4716 5.96215 19.5001 6.06993 19.5526C7.25647 20.1319 8.1425 19.6862 8.84702 18.6931C8.85991 18.6868 8.87809 18.6735 8.88008 18.66C8.88173 18.6491 8.87843 18.6375 8.88008 18.6269ZM15.8248 18.9089C15.8248 17.7974 14.9239 16.8965 13.8124 16.8965C12.7009 16.8965 11.8 17.7974 11.8 18.9089C11.8 20.0204 12.7009 20.9213 13.8124 20.9213C14.9239 20.9213 15.8248 20.0204 15.8248 18.9089Z" fill="#FEBB07"/>
<path d="M0.0527684 13.205C0.940115 21.5611 9.42908 25.0096 16.6383 21.4427C19.6002 19.9772 22.4391 17.0863 23.4934 13.9165C23.7083 13.2702 23.8184 12.6056 23.9886 11.9487C23.662 18.6931 16.8221 24.1011 10.2526 23.8499C4.54074 23.6314 -0.166423 19.0227 0.0527684 13.205Z" fill="#F5A007"/>
<path d="M18.5999 5.568C18.4353 6.97903 17.8726 8.30178 16.7816 9.23773C16.4883 8.35038 17.3711 7.90274 17.82 7.185C18.1404 6.67322 18.2766 6.22062 18.4902 5.67314C18.5136 5.61297 18.5166 5.56503 18.5999 5.568Z" fill="#F5A007"/>
<path d="M8.94623 5.82617C8.89895 8.58838 4.79051 8.58772 4.7439 5.82617C4.79117 3.06429 8.89961 3.06462 8.94623 5.82617Z" fill="#FD8500"/>
<path d="M5.47493 13.2146C3.42054 14.8861 0.668578 11.911 2.78346 10.061C4.89207 8.2165 7.648 11.4465 5.47493 13.2146Z" fill="#FE403E"/>
<path d="M14.7318 3.85548C14.6849 6.59753 10.6059 6.5972 10.5596 3.85548C10.6065 1.11344 14.6855 1.11377 14.7318 3.85548Z" fill="#FEDB11"/>
<path d="M21.4761 13.6679C21.3769 12.5775 20.365 11.8003 19.2878 11.992C18.3135 12.1653 17.0533 13.5598 16.9799 14.5274C16.5537 12.7478 18.6164 10.253 20.4817 11.2736C21.2675 11.7037 21.7707 12.8228 21.4761 13.6679Z" fill="#F5A007"/>
<path d="M15.8889 18.9088C15.8423 21.6386 11.7818 21.638 11.7358 18.9088C11.7825 16.1793 15.843 16.1797 15.8889 18.9088Z" fill="#198AF6"/>
<path d="M8.88436 18.6289C9.49367 17.6143 8.80138 16.1431 7.70939 15.8111C5.44837 15.1268 4.03007 17.9961 5.83584 19.3913C6.96552 20.2376 8.22877 19.7348 8.88436 18.6292V18.6289Z" fill="#23CE9B"/>
</g>
<defs>
<clipPath id="clip0_13141_11532">
<rect width="24" height="24" fill="white"/>
</clipPath>
</defs>
</svg>
