<svg width="24" height="24" viewBox="0 0 24 24" fill="none" xmlns="http://www.w3.org/2000/svg">
<g clip-path="url(#clip0_13141_11523)">
<path d="M21.9341 1.91504L23.1696 22.5284C23.1339 22.7201 23.054 22.7696 22.7437 22.7914H0.426322C0.199911 22.7857 -0.0178084 22.714 0.000878129 22.5558L1.23636 1.91504H21.9341ZM6.52247 7.00212C5.75372 13.8079 16.6128 15.458 16.648 6.95866C18.1824 6.63013 17.7787 4.36167 16.2347 4.39252C14.7472 4.42208 14.34 6.66837 15.8657 6.95866C16.023 13.7658 7.14174 13.7584 7.3047 6.95866C8.60102 6.79005 8.55844 4.86664 7.41552 4.47944C5.66376 3.88625 4.80636 6.43892 6.52247 7.00212Z" fill="#CE7CFE"/>
<path d="M21.934 1.91515H1.23633L1.81213 1.35759C2.0229 1.18029 1.85255 0.846971 1.7878 0.639247C1.66047 0.254652 2.36273 0.334613 2.36534 0.334613C2.36534 0.334613 20.8885 0.333309 20.908 0.334613C21.2605 0.357645 21.4382 0.197723 21.3409 0.563197L21.2279 0.987338C21.1053 1.31718 21.7706 1.71003 21.9345 1.91515H21.934Z" fill="#B04CE9"/>
<path d="M7.30466 6.95852C7.39983 9.6459 8.48887 12.0313 11.5843 12.0456C14.6706 12.0595 15.7684 9.6207 15.8657 6.95852C15.877 6.65041 15.7753 5.65568 15.9969 5.50358C16.8213 4.93907 16.6453 6.59696 16.6479 6.95852C16.6988 14.5748 7.35768 14.2958 6.57154 8.40868C6.50897 7.94152 6.522 7.47175 6.52244 7.00198C6.52244 6.57219 6.31862 5.1355 7.11997 5.47012C7.42026 5.59571 7.29293 6.63303 7.30466 6.95852Z" fill="#FEFEFE"/>
<path d="M16.648 6.95854C16.6454 6.59698 16.8214 4.93909 15.997 5.5036C15.7754 5.6557 15.8771 6.65043 15.8658 6.95854C14.34 6.66825 14.7468 4.42195 16.2347 4.3924C17.7792 4.36155 18.1825 6.62957 16.648 6.95854Z" fill="#B04CE9"/>
<path d="M7.30476 6.95863C7.29303 6.63314 7.42036 5.59582 7.12007 5.47023C6.31829 5.13561 6.52253 6.5723 6.52253 7.00209C4.80642 6.43889 5.66382 3.88622 7.41558 4.47941C8.5585 4.86661 8.60108 6.79002 7.30476 6.95863Z" fill="#B04CE9"/>
</g>
<defs>
<clipPath id="clip0_13141_11523">
<rect width="24" height="24" fill="white"/>
</clipPath>
</defs>
</svg>
